<svg xmlns="http://www.w3.org/2000/svg" xmlns:xlink="http://www.w3.org/1999/xlink" viewBox="0 0 402.72 439.5"><defs><style>.cls-1{fill:url(#linear-gradient);}.cls-2{fill:url(#linear-gradient-2);}.cls-3{fill:url(#linear-gradient-3);}.cls-4{fill:url(#linear-gradient-4);}.cls-5{fill:url(#linear-gradient-5);}.cls-6{fill:url(#linear-gradient-6);}</style><linearGradient id="linear-gradient" x1="93.29" y1="265.72" x2="227.95" y2="265.72" gradientUnits="userSpaceOnUse"><stop offset="0.05" stop-color="#b1c56e"/><stop offset="0.62" stop-color="#82b12a"/><stop offset="0.99" stop-color="#80ae28"/></linearGradient><linearGradient id="linear-gradient-2" x1="22.92" y1="275.51" x2="191.31" y2="336.79" gradientUnits="userSpaceOnUse"><stop offset="0.05" stop-color="#31b8e7"/><stop offset="0.62" stop-color="#048fd4"/><stop offset="0.99" stop-color="#0288cf"/></linearGradient><linearGradient id="linear-gradient-3" x1="272.16" y1="229.87" x2="326.6" y2="379.43" xlink:href="#linear-gradient-2"/><linearGradient id="linear-gradient-4" x1="188.92" y1="94.98" x2="242.04" y2="240.92" xlink:href="#linear-gradient-2"/><linearGradient id="linear-gradient-5" x1="292.85" y1="157.32" x2="228.64" y2="333.74" xlink:href="#linear-gradient"/><linearGradient id="linear-gradient-6" x1="337.3" y1="57.75" x2="65.42" y2="381.76" xlink:href="#linear-gradient-2"/></defs><g id="Layer_2" data-name="Layer 2"><g id="Layer_3" data-name="Layer 3"><path class="cls-1" d="M228,416.32s0-33.1-7.46-109.88S168.28,126,93.29,109.15c0,0,68.06,54.68,75.93,166.33s7.22,146.81,7.22,146.81Z"/><path class="cls-2" d="M49.76,201.77s56.39,7.51,85.67,66.67S164,411.93,164,411.93l-54.32-22.44s1-54.1-10-104.93S49.76,201.77,49.76,201.77Z"/><path class="cls-3" d="M249.47,391.73s-2.53-54,20.63-103.6,52.74-73.44,79.27-86.36c0,0-50.35,59.85-50.35,180.92l-49.63,24.84Z"/><path class="cls-4" d="M224.39,247.34s-9.67-25.51-21.67-53.05c0,0,13.53-69.41,0-104.34,0,0,20.11,14.56,25.23,68.12S224.39,247.34,224.39,247.34Z"/><path class="cls-5" d="M228.83,265.72l11.89,72.42s12.77-79.45,33.42-118,41.78-54.39,41.78-54.39S248.58,178,228.83,265.72Z"/><path class="cls-6" d="M201.36,439.5a82.3,82.3,0,0,1-41.13-11L41.13,359.75A82.47,82.47,0,0,1,0,288.52V151A82.49,82.49,0,0,1,41.13,79.75L160.23,11a82.48,82.48,0,0,1,82.26,0l119.1,68.76A82.49,82.49,0,0,1,402.72,151V288.52a82.47,82.47,0,0,1-41.13,71.23l-119.1,68.77A82.27,82.27,0,0,1,201.36,439.5Zm0-407.53a50.2,50.2,0,0,0-25.13,6.72L57.12,107.45A50.42,50.42,0,0,0,32,151V288.52a50.41,50.41,0,0,0,25.13,43.53l119.11,68.77a50.42,50.42,0,0,0,50.27,0l119.1-68.77a50.41,50.41,0,0,0,25.13-43.53V151a50.42,50.42,0,0,0-25.13-43.54L226.5,38.69A50.27,50.27,0,0,0,201.36,32Z"/></g></g></svg>