<svg xmlns="http://www.w3.org/2000/svg" viewBox="0 0 1646.69 439.5"><defs><style>.cls-1{fill:#fff;}</style></defs><g id="Layer_2" data-name="Layer 2"><g id="Layer_3" data-name="Layer 3"><path class="cls-1" d="M228,416.32s0-33.1-7.46-109.88S168.28,126,93.29,109.15c0,0,68.06,54.68,75.93,166.33s7.22,146.81,7.22,146.81Z"/><path class="cls-1" d="M49.76,201.77s56.39,7.51,85.67,66.67S164,411.93,164,411.93l-54.32-22.44s1-54.1-10-104.93S49.76,201.77,49.76,201.77Z"/><path class="cls-1" d="M249.47,391.73s-2.53-54,20.63-103.6,52.74-73.44,79.27-86.36c0,0-50.35,59.85-50.35,180.92l-49.63,24.84Z"/><path class="cls-1" d="M224.39,247.34s-9.67-25.51-21.67-53.05c0,0,13.53-69.41,0-104.34,0,0,20.11,14.56,25.23,68.12S224.39,247.34,224.39,247.34Z"/><path class="cls-1" d="M228.83,265.72l11.89,72.42s12.77-79.45,33.42-118,41.78-54.39,41.78-54.39S248.58,178,228.83,265.72Z"/><path class="cls-1" d="M201.36,439.5a82.3,82.3,0,0,1-41.13-11L41.13,359.75A82.47,82.47,0,0,1,0,288.52V151A82.49,82.49,0,0,1,41.13,79.75L160.23,11a82.48,82.48,0,0,1,82.26,0l119.1,68.76A82.49,82.49,0,0,1,402.72,151V288.52a82.47,82.47,0,0,1-41.13,71.23l-119.1,68.77A82.27,82.27,0,0,1,201.36,439.5Zm0-407.53a50.2,50.2,0,0,0-25.13,6.72L57.12,107.45A50.42,50.42,0,0,0,32,151V288.52a50.41,50.41,0,0,0,25.13,43.53l119.11,68.77a50.42,50.42,0,0,0,50.27,0l119.1-68.77a50.41,50.41,0,0,0,25.13-43.53V151a50.42,50.42,0,0,0-25.13-43.54L226.5,38.69A50.27,50.27,0,0,0,201.36,32Z"/><path class="cls-1" d="M637.83,84.18v167H611.48V177.58H527.25v73.64H500.66v-167h26.59v69.88h84.23V84.18Z"/><path class="cls-1" d="M661.82,215.58a32.58,32.58,0,0,1,6.71-20.4q6.71-8.75,18.59-13.52a72.4,72.4,0,0,1,27.17-4.78,110.7,110.7,0,0,1,16.7,1.29,88.11,88.11,0,0,1,15.3,3.65V174.1q0-12.73-7.77-19.92T716.17,147a54,54,0,0,0-19.53,3.53,97.21,97.21,0,0,0-19.52,10.58l-8.47-17.64a97.44,97.44,0,0,1,24.23-12.12A82.89,82.89,0,0,1,719,127.24q24.69,0,38.82,12.91t14.11,36.63v45.37c0,2.94.55,5,1.65,6.28s2.9,1.94,5.41,2.09v20.7a58.73,58.73,0,0,1-6.24.95c-1.8.15-3.33.31-4.58.46q-8.48-.23-12.71-4.23a15.4,15.4,0,0,1-4.94-9.41l-.7-7.06a51,51,0,0,1-20.36,16,61.37,61.37,0,0,1-25.29,5.65,46.79,46.79,0,0,1-21.88-5,38,38,0,0,1-15-13.63A35.64,35.64,0,0,1,661.82,215.58Zm78.35,7.6a53.58,53.58,0,0,0,4.35-6.24,11.13,11.13,0,0,0,1.77-5.56V197.73a74.29,74.29,0,0,0-13.88-3.82,83,83,0,0,0-14.12-1.27q-14.35,0-23.17,5.56t-8.83,15.27a18.79,18.79,0,0,0,2.94,10.06,23.05,23.05,0,0,0,8.47,7.87,27.18,27.18,0,0,0,13.53,3.12,41.21,41.21,0,0,0,16.47-3.35A40.43,40.43,0,0,0,740.17,223.18Z"/><path class="cls-1" d="M872.39,150.53a54.6,54.6,0,0,0-26.47,6.82,37.11,37.11,0,0,0-16.58,18.59v75.28H803.46V129.12h23.76v26.35a58.54,58.54,0,0,1,16.94-20.12q10.35-7.64,21.64-8.35h4.12a10.33,10.33,0,0,1,2.47.24Z"/><path class="cls-1" d="M882,190.41a70,70,0,0,1,7.18-31.82,58.9,58.9,0,0,1,19.64-22.84,49.63,49.63,0,0,1,28.7-8.51,46.8,46.8,0,0,1,25.76,7.29,52.19,52.19,0,0,1,17.53,17.88V79.48h25.88V222.05q0,4.23,1.65,6.24c1.09,1.33,2.9,2.08,5.41,2.23v20.7a105.63,105.63,0,0,1-11.29,1.41,17.81,17.81,0,0,1-12.24-4.35,15,15,0,0,1-5.41-10.23l-.23-8.94a52.64,52.64,0,0,1-44,24.47,54.55,54.55,0,0,1-23.41-5,57.56,57.56,0,0,1-18.58-13.75,63.69,63.69,0,0,1-12.24-20A67.28,67.28,0,0,1,882,190.41Zm98.81,16.93V175.56a34.84,34.84,0,0,0-8.35-13.22A49.24,49.24,0,0,0,959.56,153a32,32,0,0,0-14.47-3.6,31.43,31.43,0,0,0-14.7,3.48A37.87,37.87,0,0,0,918.86,162a40.38,40.38,0,0,0-7.41,13.23,47.71,47.71,0,0,0-2.59,15.65,43.36,43.36,0,0,0,2.82,15.54,39.74,39.74,0,0,0,8.12,13.11A38.08,38.08,0,0,0,932,228.33a36.46,36.46,0,0,0,15.18,3.13,33.39,33.39,0,0,0,10.47-1.74,39.11,39.11,0,0,0,10-5,37.47,37.47,0,0,0,8.23-7.77A27.6,27.6,0,0,0,980.85,207.34Z"/><path class="cls-1" d="M1101.07,251.22v-167h72.7a45.64,45.64,0,0,1,20.71,4.71,54.35,54.35,0,0,1,16.35,12.47,58.71,58.71,0,0,1,10.82,17.52,52.78,52.78,0,0,1,3.88,19.65,56.68,56.68,0,0,1-4,21.29,50,50,0,0,1-11.41,17.29,44.13,44.13,0,0,1-17.29,10.59l39.29,63.52h-29.65l-36.23-58.11h-38.58v58.11Zm26.59-81.4h45.88a20.64,20.64,0,0,0,12.94-4.35,30.38,30.38,0,0,0,8.94-11.41,36.36,36.36,0,0,0,3.29-15.53,32.18,32.18,0,0,0-3.88-15.77,32.61,32.61,0,0,0-9.76-11.17,22.14,22.14,0,0,0-12.94-4.12h-44.47Z"/><path class="cls-1" d="M1304.58,253.58a64.89,64.89,0,0,1-26.11-5,59.5,59.5,0,0,1-19.88-13.87,62.67,62.67,0,0,1-12.83-20.16,64.35,64.35,0,0,1-4.47-23.89,65.67,65.67,0,0,1,4.47-24.36,62.67,62.67,0,0,1,12.83-20.16,59.4,59.4,0,0,1,20-13.87,65.17,65.17,0,0,1,26-5,64.08,64.08,0,0,1,26,5,62,62,0,0,1,32.82,34,65.67,65.67,0,0,1,4.47,24.36,64.35,64.35,0,0,1-4.47,23.89,62.81,62.81,0,0,1-12.82,20.16,59.39,59.39,0,0,1-20,13.87A65.13,65.13,0,0,1,1304.58,253.58Zm-36.7-63.17a44.2,44.2,0,0,0,4.94,21.1A38.67,38.67,0,0,0,1286,226.13a33,33,0,0,0,18.35,5.33,33.83,33.83,0,0,0,18.82-5.33,38.26,38.26,0,0,0,13.17-14.85,46.81,46.81,0,0,0,0-41.86,38.14,38.14,0,0,0-13.29-14.74,33.68,33.68,0,0,0-18.47-5.33,32.4,32.4,0,0,0-18.58,5.57,40.53,40.53,0,0,0-13.18,14.85A43.23,43.23,0,0,0,1267.88,190.41Z"/><path class="cls-1" d="M1446.68,253.58a65.09,65.09,0,0,1-26-5,59.87,59.87,0,0,1-20.12-14,64.37,64.37,0,0,1-13.06-20.4,63.72,63.72,0,0,1-4.58-24,65.2,65.2,0,0,1,7.76-31.59,58.41,58.41,0,0,1,22.23-22.84q14.47-8.52,33.76-8.51,18.83,0,32.82,8.35a52.61,52.61,0,0,1,20.82,22.23l-25.4,7.77a31.25,31.25,0,0,0-11.77-11.89,33.25,33.25,0,0,0-16.94-4.35,34.56,34.56,0,0,0-18.7,5.22A36.79,36.79,0,0,0,1414.33,169a45,45,0,0,0-4.82,21.23,44.22,44.22,0,0,0,4.94,21.1A38.86,38.86,0,0,0,1427.86,226a33.61,33.61,0,0,0,18.59,5.45,34.66,34.66,0,0,0,22.7-8.47,23.53,23.53,0,0,0,6.47-8.47l25.18,7.77a48.11,48.11,0,0,1-11.77,16,57.84,57.84,0,0,1-18.58,11.17A66.47,66.47,0,0,1,1446.68,253.58Z"/><path class="cls-1" d="M1608.08,251.22l-39.53-56.14L1548.32,214v37.19h-25.88V79.48h25.88V188.07l56.93-58.95H1633l-47.53,51.23,50.35,70.87Z"/><rect class="cls-1" x="489.82" y="329.63" width="258.97" height="6.82"/><rect class="cls-1" x="1392.3" y="329.63" width="254.38" height="6.82"/><path class="cls-1" d="M773.85,359.65V306.42h8.47v45.81h28.49v7.42Z"/><path class="cls-1" d="M839.75,306.42h8l20.69,53.23h-8.85l-5.2-14.47H833.06l-5.23,14.47H819ZM852.11,339l-8.39-23.32L835.3,339Z"/><path class="cls-1" d="M890.2,322v37.63h-8.47V306.42h6.9l30.13,38.46V306.5h8.4v53.15h-7.27Z"/><path class="cls-1" d="M946,359.65V306.42h18.89q8.63,0,14.36,3.56a22.87,22.87,0,0,1,8.66,9.6A30.25,30.25,0,0,1,990.81,333a29.58,29.58,0,0,1-3.19,14.1,22.58,22.58,0,0,1-9,9.29,27.45,27.45,0,0,1-13.72,3.3ZM982.26,333a22.41,22.41,0,0,0-2.06-9.89,16.18,16.18,0,0,0-5.92-6.75,17.07,17.07,0,0,0-9.41-2.48H954.45v38.39h10.42a16.81,16.81,0,0,0,9.48-2.55,16.32,16.32,0,0,0,5.89-6.9A23,23,0,0,0,982.26,333Z"/><path class="cls-1" d="M1037.82,318.94a9.44,9.44,0,0,0-2.14-1.76,21.29,21.29,0,0,0-3.38-1.72,28.23,28.23,0,0,0-4.19-1.35,19.36,19.36,0,0,0-4.69-.57q-5.25,0-7.8,1.94a6.41,6.41,0,0,0-2.54,5.38,5.6,5.6,0,0,0,1.42,4,10.25,10.25,0,0,0,4.38,2.42q3,.93,7.32,2a50.14,50.14,0,0,1,9.4,3.06,15,15,0,0,1,6.08,4.7,12.84,12.84,0,0,1,2.13,7.76,14.44,14.44,0,0,1-1.54,6.86,12.87,12.87,0,0,1-4.23,4.74,19.84,19.84,0,0,1-6.22,2.72,30.58,30.58,0,0,1-7.58.9,37.27,37.27,0,0,1-7.91-.86,38.26,38.26,0,0,1-7.49-2.48,34.43,34.43,0,0,1-6.63-3.94l3.89-7.19a13.47,13.47,0,0,0,2.78,2.13,30.83,30.83,0,0,0,4.31,2.21,33.18,33.18,0,0,0,5.32,1.77,24.64,24.64,0,0,0,5.88.71q5,0,7.69-1.75a5.71,5.71,0,0,0,2.66-5.09,5.44,5.44,0,0,0-1.76-4.21,14.36,14.36,0,0,0-5-2.73c-2.18-.75-4.79-1.49-7.84-2.24a47.3,47.3,0,0,1-8.77-3.06,12.77,12.77,0,0,1-5.25-4.33,12.14,12.14,0,0,1-1.72-6.8,14.57,14.57,0,0,1,9.45-14.29,25.41,25.41,0,0,1,9.82-1.83,28.76,28.76,0,0,1,6.85.79,30.29,30.29,0,0,1,6.08,2.13,26.42,26.42,0,0,1,5,3.08Z"/><path class="cls-1" d="M1055.51,332.59a27.45,27.45,0,0,1,1.72-9.56,27.74,27.74,0,0,1,5.06-8.55,24.31,24.31,0,0,1,18.93-8.43,23.07,23.07,0,0,1,12.48,3.26,20.65,20.65,0,0,1,7.76,8.36l-6.6,4.42a13.22,13.22,0,0,0-8.69-7.72,19.58,19.58,0,0,0-5.25-.75,15.09,15.09,0,0,0-7.27,1.69,16.31,16.31,0,0,0-5.29,4.46,19.39,19.39,0,0,0-3.18,6.22,23.59,23.59,0,0,0-1,6.9,22.1,22.1,0,0,0,1.24,7.42,19.73,19.73,0,0,0,3.52,6.26,17,17,0,0,0,5.39,4.31,15,15,0,0,0,6.87,1.57,17.44,17.44,0,0,0,5.39-.9,15.33,15.33,0,0,0,5.14-2.84,13.52,13.52,0,0,0,3.71-4.95l7,3.9a16,16,0,0,1-5.06,6.74,25,25,0,0,1-7.83,4.2,27.56,27.56,0,0,1-8.62,1.43,22,22,0,0,1-10.13-2.37,26.36,26.36,0,0,1-8-6.29,29.45,29.45,0,0,1-5.29-8.85A27.61,27.61,0,0,1,1055.51,332.59Z"/><path class="cls-1" d="M1131.52,306.42h8l20.69,53.23h-8.84l-5.2-14.47h-21.29l-5.23,14.47h-8.84ZM1143.88,339l-8.38-23.32L1127.08,339Z"/><path class="cls-1" d="M1173.51,359.65V306.42h22.34a14.54,14.54,0,0,1,6.59,1.5,17.8,17.8,0,0,1,5.25,4,17.62,17.62,0,0,1,3.45,5.58,17.26,17.26,0,0,1,1.2,6.26,18.48,18.48,0,0,1-2,8.4,17,17,0,0,1-5.58,6.48,14.39,14.39,0,0,1-8.47,2.52H1182v18.51Zm8.47-25.94h13.79a6.82,6.82,0,0,0,4.13-1.31,9,9,0,0,0,2.84-3.6,12.12,12.12,0,0,0,1-5.13,10.63,10.63,0,0,0-1.2-5.14,9.3,9.3,0,0,0-3.11-3.45,7.4,7.4,0,0,0-4.08-1.24H1182Z"/><path class="cls-1" d="M1227,359.65V306.42h8.47v53.23Z"/><path class="cls-1" d="M1262.57,322v37.63h-8.47V306.42H1261l30.14,38.46V306.5h8.4v53.15h-7.28Z"/><path class="cls-1" d="M1340.09,360a22.59,22.59,0,0,1-9.83-2.18,25.07,25.07,0,0,1-8-6,28.47,28.47,0,0,1-7.24-19.08,27.55,27.55,0,0,1,7.24-18.78,25.11,25.11,0,0,1,8-5.84,23.42,23.42,0,0,1,10-2.14,24.19,24.19,0,0,1,12.86,3.19,20.47,20.47,0,0,1,7.83,8.43l-6.45,4.65a15,15,0,0,0-6-6.53,16.73,16.73,0,0,0-8.39-2.17,14.66,14.66,0,0,0-6.86,1.58,16,16,0,0,0-5.21,4.3,20.41,20.41,0,0,0-3.34,6.23,23.07,23.07,0,0,0-1.16,7.31,22.32,22.32,0,0,0,1.27,7.57,19.36,19.36,0,0,0,3.6,6.18,16.89,16.89,0,0,0,5.48,4.17,15.59,15.59,0,0,0,6.74,1.49,16.73,16.73,0,0,0,8.36-2.21,25,25,0,0,0,7.39-6.63v8.54Q1349.46,360,1340.09,360ZM1355.53,339h-11.1v-6.3h18.22v27h-7.12Z"/></g></g></svg>