<svg xmlns="http://www.w3.org/2000/svg" viewBox="0 0 717.27 662.11"><defs><style>.cls-1{fill:#fff;}</style></defs><g id="Layer_2" data-name="Layer 2"><g id="Layer_3" data-name="Layer 3"><path class="cls-1" d="M91.77,491.09V594.65H75.43V549H23.21v45.65H6.73V491.09H23.21v43.32H75.43V491.09Z"/><path class="cls-1" d="M106.65,572.55a20.21,20.21,0,0,1,4.15-12.65,26.78,26.78,0,0,1,11.53-8.38,45,45,0,0,1,16.85-3,69.07,69.07,0,0,1,10.35.8,55,55,0,0,1,9.48,2.26v-4.78q0-7.9-4.81-12.35T140.34,530a33.35,33.35,0,0,0-12.1,2.19,60,60,0,0,0-12.11,6.57l-5.25-10.94a60.54,60.54,0,0,1,15-7.52,51.33,51.33,0,0,1,16.19-2.55q15.32,0,24.07,8t8.75,22.72v28.13a5.87,5.87,0,0,0,1,3.89,4.71,4.71,0,0,0,3.36,1.3v12.83a34.73,34.73,0,0,1-3.87.59c-1.11.09-2.06.19-2.84.29-3.5-.1-6.13-1-7.88-2.63a9.51,9.51,0,0,1-3.06-5.83l-.44-4.38a31.53,31.53,0,0,1-12.62,9.92,37.91,37.91,0,0,1-15.68,3.5,29,29,0,0,1-13.56-3.1,23.65,23.65,0,0,1-9.34-8.46A22.06,22.06,0,0,1,106.65,572.55Zm48.57,4.72a33.47,33.47,0,0,0,2.7-3.87A6.9,6.9,0,0,0,159,570v-8.46a46,46,0,0,0-8.6-2.37,51.54,51.54,0,0,0-8.75-.79q-8.91,0-14.37,3.45a10.65,10.65,0,0,0-5.47,9.46,11.66,11.66,0,0,0,1.82,6.25,14.31,14.31,0,0,0,5.25,4.87,16.85,16.85,0,0,0,8.39,1.94,25.4,25.4,0,0,0,10.21-2.08A25.12,25.12,0,0,0,155.22,577.27Z"/><path class="cls-1" d="M237.2,532.22a33.91,33.91,0,0,0-16.41,4.23A23,23,0,0,0,210.51,548v46.68h-16V519h14.73v16.34a36.2,36.2,0,0,1,10.51-12.48,25,25,0,0,1,13.42-5.18h2.55a6.35,6.35,0,0,1,1.53.15Z"/><path class="cls-1" d="M243.18,557a43.41,43.41,0,0,1,4.45-19.73,36.59,36.59,0,0,1,12.18-14.16,30.82,30.82,0,0,1,17.8-5.28,29.06,29.06,0,0,1,16,4.52,32.4,32.4,0,0,1,10.87,11.09V488.17h16v88.4a5.94,5.94,0,0,0,1,3.86,4.46,4.46,0,0,0,3.35,1.39v12.83a67.75,67.75,0,0,1-7,.88,11.07,11.07,0,0,1-7.59-2.7,9.23,9.23,0,0,1-3.35-6.34l-.15-5.55a32.62,32.62,0,0,1-27.28,15.17A33.79,33.79,0,0,1,265,593a35.82,35.82,0,0,1-11.52-8.53,39.65,39.65,0,0,1-7.59-12.43A41.65,41.65,0,0,1,243.18,557Zm61.27,10.49v-19.7a21.64,21.64,0,0,0-5.18-8.19,30.63,30.63,0,0,0-8-5.83,19.82,19.82,0,0,0-9-2.23,19.47,19.47,0,0,0-9.12,2.16,23.43,23.43,0,0,0-7.15,5.68,25.18,25.18,0,0,0-4.59,8.2,29.38,29.38,0,0,0-1.61,9.7,26.82,26.82,0,0,0,1.75,9.64,24.71,24.71,0,0,0,5,8.13,23.41,23.41,0,0,0,7.58,5.46,22.67,22.67,0,0,0,9.41,1.94,20.68,20.68,0,0,0,6.49-1.08,24,24,0,0,0,6.2-3.09,22.88,22.88,0,0,0,5.1-4.82A17.08,17.08,0,0,0,304.45,567.44Z"/><path class="cls-1" d="M379,594.65V491.09h45.07A28.36,28.36,0,0,1,436.9,494,33.75,33.75,0,0,1,447,501.73a36.44,36.44,0,0,1,6.7,10.87,32.67,32.67,0,0,1,2.41,12.18,35.25,35.25,0,0,1-2.48,13.2,31,31,0,0,1-7.07,10.73,27.58,27.58,0,0,1-10.72,6.56l24.36,39.38H441.86l-22.47-36H395.47v36Zm16.48-50.47h28.44a12.8,12.8,0,0,0,8-2.7,18.68,18.68,0,0,0,5.54-7.07,22.53,22.53,0,0,0,2-9.63,20.36,20.36,0,0,0-8.46-16.7,13.68,13.68,0,0,0-8-2.55H395.47Z"/><path class="cls-1" d="M505.16,596.11A40.27,40.27,0,0,1,489,593a37.17,37.17,0,0,1-12.32-8.6,38.61,38.61,0,0,1-7.95-12.51,39.81,39.81,0,0,1-2.77-14.81A40.61,40.61,0,0,1,468.7,542a38.68,38.68,0,0,1,7.95-12.5,36.75,36.75,0,0,1,12.4-8.6,40.36,40.36,0,0,1,16.11-3.11,39.72,39.72,0,0,1,16.12,3.11A38.43,38.43,0,0,1,541.63,542a40.61,40.61,0,0,1,2.77,15.1,39.81,39.81,0,0,1-2.77,14.81,39,39,0,0,1-8,12.51,36.9,36.9,0,0,1-12.4,8.6A40.37,40.37,0,0,1,505.16,596.11ZM482.41,557A27.39,27.39,0,0,0,485.47,570a23.92,23.92,0,0,0,8.17,9.06A20.45,20.45,0,0,0,505,582.4a21,21,0,0,0,11.67-3.31,23.77,23.77,0,0,0,8.17-9.2,29.06,29.06,0,0,0,0-26,23.76,23.76,0,0,0-8.24-9.13,20.94,20.94,0,0,0-11.46-3.31A20,20,0,0,0,493.64,535a25.2,25.2,0,0,0-8.17,9.2A26.8,26.8,0,0,0,482.41,557Z"/><path class="cls-1" d="M593.27,596.11a40.4,40.4,0,0,1-16.12-3.1,37.27,37.27,0,0,1-12.47-8.68,39.79,39.79,0,0,1-10.94-27.53,40.44,40.44,0,0,1,4.81-19.58,36.14,36.14,0,0,1,13.79-14.16,40.48,40.48,0,0,1,20.93-5.28A39,39,0,0,1,613.62,523a32.65,32.65,0,0,1,12.91,13.78l-15.76,4.82a19.33,19.33,0,0,0-7.29-7.37,20.58,20.58,0,0,0-10.5-2.7,21.42,21.42,0,0,0-11.6,3.24,22.77,22.77,0,0,0-8.17,8.91,27.91,27.91,0,0,0-3,13.16,27.43,27.43,0,0,0,3.06,13.09A24.21,24.21,0,0,0,581.6,579a20.8,20.8,0,0,0,11.52,3.38,21.26,21.26,0,0,0,7.59-1.38,21.55,21.55,0,0,0,6.49-3.87,14.52,14.52,0,0,0,4-5.25l15.61,4.81a30,30,0,0,1-7.29,9.92A35.89,35.89,0,0,1,608,593.56,41.12,41.12,0,0,1,593.27,596.11Z"/><path class="cls-1" d="M693.33,594.65l-24.5-34.81-12.55,11.75v23.06h-16V488.17h16V555.5L691.58,519H708.8l-29.47,31.76,31.22,43.94Z"/><rect class="cls-1" y="643.27" width="160.56" height="4.23"/><rect class="cls-1" x="559.55" y="643.27" width="157.72" height="4.23"/><path class="cls-1" d="M176.11,661.88v-33h5.25v28.4H199v4.6Z"/><path class="cls-1" d="M217,628.88h4.93l12.83,33h-5.49l-3.22-9h-13.2l-3.24,9h-5.48Zm7.66,20.17-5.19-14.45-5.22,14.45Z"/><path class="cls-1" d="M248.24,638.55v23.33H243v-33h4.28L266,652.72V628.93h5.21v33h-4.51Z"/><path class="cls-1" d="M282.83,661.88v-33h11.71a16.61,16.61,0,0,1,8.9,2.21,14.09,14.09,0,0,1,5.37,5.95,18.73,18.73,0,0,1,1.81,8.29,18.45,18.45,0,0,1-2,8.74,14.15,14.15,0,0,1-5.6,5.77,17.09,17.09,0,0,1-8.51,2Zm22.49-16.55A13.82,13.82,0,0,0,304,639.2a10,10,0,0,0-3.67-4.19,10.59,10.59,0,0,0-5.83-1.53h-6.46v23.8h6.46a10.49,10.49,0,0,0,5.88-1.58,10.23,10.23,0,0,0,3.65-4.28A14.35,14.35,0,0,0,305.32,645.33Z"/><path class="cls-1" d="M339.77,636.64a5.72,5.72,0,0,0-1.33-1.09,12.35,12.35,0,0,0-2.09-1.07,18.89,18.89,0,0,0-2.6-.84,12.33,12.33,0,0,0-2.91-.35A8,8,0,0,0,326,634.5a3.93,3.93,0,0,0-1.58,3.33,3.47,3.47,0,0,0,.88,2.5,6.43,6.43,0,0,0,2.72,1.5c1.22.39,2.73.79,4.53,1.23a30.73,30.73,0,0,1,5.83,1.89,9.33,9.33,0,0,1,3.77,2.91,8,8,0,0,1,1.32,4.82,8.91,8.91,0,0,1-1,4.25,7.92,7.92,0,0,1-2.63,2.94,12.24,12.24,0,0,1-3.85,1.69,19,19,0,0,1-4.7.55A23.21,23.21,0,0,1,321.8,660a20.73,20.73,0,0,1-4.11-2.44l2.41-4.46a8.51,8.51,0,0,0,1.72,1.33,21.5,21.5,0,0,0,2.68,1.37,20.59,20.59,0,0,0,3.3,1.09,14.81,14.81,0,0,0,3.64.44,8.73,8.73,0,0,0,4.77-1.08,3.54,3.54,0,0,0,1.65-3.16,3.38,3.38,0,0,0-1.09-2.61,8.92,8.92,0,0,0-3.12-1.69c-1.34-.46-3-.93-4.85-1.39a29.08,29.08,0,0,1-5.44-1.9,8,8,0,0,1-3.26-2.68,7.57,7.57,0,0,1-1.07-4.22,9.39,9.39,0,0,1,1.56-5.48,9.52,9.52,0,0,1,4.3-3.38,15.92,15.92,0,0,1,6.09-1.13,18.27,18.27,0,0,1,4.25.48,19.06,19.06,0,0,1,3.77,1.33,16.16,16.16,0,0,1,3.09,1.91Z"/><path class="cls-1" d="M350.73,645.1a17.14,17.14,0,0,1,4.21-11.22,15.06,15.06,0,0,1,11.74-5.23,14.31,14.31,0,0,1,7.74,2,12.9,12.9,0,0,1,4.81,5.18l-4.09,2.74a8.13,8.13,0,0,0-5.39-4.78,12.17,12.17,0,0,0-3.26-.47,9.41,9.41,0,0,0-4.51,1,10.17,10.17,0,0,0-3.27,2.76,11.88,11.88,0,0,0-2,3.86,14.77,14.77,0,0,0-.65,4.28,13.84,13.84,0,0,0,.77,4.6,12.4,12.4,0,0,0,2.18,3.88,10.53,10.53,0,0,0,3.35,2.67,9.26,9.26,0,0,0,4.25,1,10.94,10.94,0,0,0,3.35-.56,9.54,9.54,0,0,0,3.18-1.77,8.14,8.14,0,0,0,2.3-3.06l4.32,2.41a9.87,9.87,0,0,1-3.13,4.19,15.59,15.59,0,0,1-4.86,2.6,17.06,17.06,0,0,1-5.34.88,13.72,13.72,0,0,1-6.28-1.46,16.53,16.53,0,0,1-5-3.9,18.18,18.18,0,0,1-3.27-5.49A17,17,0,0,1,350.73,645.1Z"/><path class="cls-1" d="M397.87,628.88h4.92l12.83,33h-5.48l-3.23-9H393.72l-3.25,9H385Zm7.66,20.17-5.2-14.45-5.22,14.45Z"/><path class="cls-1" d="M423.9,661.88v-33h13.85a9,9,0,0,1,4.09.93,11.1,11.1,0,0,1,5.39,5.92,10.86,10.86,0,0,1,.74,3.89,11.5,11.5,0,0,1-1.23,5.2,10.52,10.52,0,0,1-3.46,4A8.94,8.94,0,0,1,438,650.4h-8.88v11.48Zm5.25-16.08h8.55a4.21,4.21,0,0,0,2.56-.82,5.5,5.5,0,0,0,1.76-2.23,7.41,7.41,0,0,0,.65-3.18,6.56,6.56,0,0,0-.74-3.19,5.78,5.78,0,0,0-1.93-2.13,4.58,4.58,0,0,0-2.53-.77h-8.32Z"/><path class="cls-1" d="M457,661.88v-33h5.25v33Z"/><path class="cls-1" d="M479.11,638.55v23.33h-5.25v-33h4.28l18.68,23.84V628.93H502v33h-4.51Z"/><path class="cls-1" d="M527.18,662.11a14,14,0,0,1-6.09-1.35,15.43,15.43,0,0,1-5-3.69,17.34,17.34,0,0,1-3.3-5.39,17.62,17.62,0,0,1-1.19-6.44,17,17,0,0,1,4.49-11.64,15.55,15.55,0,0,1,5-3.63,14.61,14.61,0,0,1,6.2-1.32,15.11,15.11,0,0,1,8,2,12.7,12.7,0,0,1,4.85,5.23l-4,2.88a9.31,9.31,0,0,0-3.72-4,10.35,10.35,0,0,0-5.21-1.35,9.09,9.09,0,0,0-4.25,1,10,10,0,0,0-3.23,2.67,12.47,12.47,0,0,0-2.07,3.86,14.23,14.23,0,0,0-.72,4.53,13.58,13.58,0,0,0,.79,4.69,12,12,0,0,0,2.23,3.84,10.4,10.4,0,0,0,3.39,2.58,9.65,9.65,0,0,0,4.19.93,10.45,10.45,0,0,0,5.18-1.37,15.72,15.72,0,0,0,4.58-4.12v5.3A13.14,13.14,0,0,1,527.18,662.11Zm9.57-13.06h-6.88v-3.9h11.3v16.73h-4.42Z"/><path class="cls-1" d="M385.22,416.32s0-33.1-7.45-109.88S325.55,126,250.57,109.15c0,0,68.06,54.68,75.93,166.33s7.22,146.81,7.22,146.81Z"/><path class="cls-1" d="M207,201.77s56.38,7.51,85.66,66.67,28.53,143.49,28.53,143.49l-54.31-22.44s1-54.1-10-104.93S207,201.77,207,201.77Z"/><path class="cls-1" d="M406.74,391.73s-2.53-54,20.63-103.6,52.75-73.44,79.27-86.36c0,0-50.35,59.85-50.35,180.92l-49.63,24.84Z"/><path class="cls-1" d="M381.67,247.34S372,221.83,360,194.29c0,0,13.52-69.41,0-104.34,0,0,20.1,14.56,25.22,68.12S381.67,247.34,381.67,247.34Z"/><path class="cls-1" d="M386.11,265.72,398,338.14s12.77-79.45,33.42-118,41.78-54.39,41.78-54.39S405.85,178,386.11,265.72Z"/><path class="cls-1" d="M358.64,439.5a82.24,82.24,0,0,1-41.13-11L198.4,359.75a82.48,82.48,0,0,1-41.12-71.23V151A82.5,82.5,0,0,1,198.4,79.75L317.51,11a82.48,82.48,0,0,1,82.26,0l119.1,68.76A82.49,82.49,0,0,1,560,151V288.52a82.47,82.47,0,0,1-41.13,71.23l-119.1,68.77A82.3,82.3,0,0,1,358.64,439.5Zm0-407.53a50.21,50.21,0,0,0-25.14,6.72L214.4,107.45A50.43,50.43,0,0,0,189.26,151V288.52a50.42,50.42,0,0,0,25.14,43.53l119.1,68.77a50.42,50.42,0,0,0,50.27,0l119.1-68.77A50.39,50.39,0,0,0,528,288.52V151a50.41,50.41,0,0,0-25.14-43.54L383.77,38.69A50.2,50.2,0,0,0,358.64,32Z"/></g></g></svg>